<svg xmlns="http://www.w3.org/2000/svg" viewBox="0 0 29.37 27.7"><defs><style>.cls-1{fill:gray;}.cls-2{fill:#283941;}</style></defs><g id="Layer_2" data-name="Layer 2"><g id="Layer_1-2" data-name="Layer 1"><path class="cls-1" d="M25.8,16.33A10,10,0,0,1,18.07,0a10,10,0,1,0,11.3,15.67A10.06,10.06,0,0,1,25.8,16.33Z"/><path class="cls-2" d="M9,5.7c-6.6,0-6.86,6.33-7,7A5.11,5.11,0,0,0,0,17a4.39,4.39,0,0,0,4.15,4.73H19.26A4.87,4.87,0,0,0,24,16.63a5,5,0,0,0-3.5-4.58,5.26,5.26,0,0,0-4.93-2.88l-.63,0A6.59,6.59,0,0,0,9,5.7Z"/><path class="cls-1" d="M4.92,23.66a1,1,0,0,0-1.33.48l-1,2.14a1,1,0,1,0,1.82.84L5.4,25A1,1,0,0,0,4.92,23.66Z"/><path class="cls-1" d="M14.92,23.66a1,1,0,0,0-1.33.48l-1,2.14a1,1,0,1,0,1.81.84l1-2.13A1,1,0,0,0,14.92,23.66Z"/><path class="cls-1" d="M9.92,23.66a1,1,0,0,0-1.33.48l-1,2.14a1,1,0,1,0,1.81.84l1-2.13A1,1,0,0,0,9.92,23.66Z"/><path class="cls-1" d="M19.92,23.66a1,1,0,0,0-1.33.48l-1,2.14a1,1,0,1,0,1.81.84l1-2.13A1,1,0,0,0,19.92,23.66Z"/></g></g></svg>