<svg xmlns="http://www.w3.org/2000/svg" viewBox="0 0 29.74 29.33"><defs><style>.cls-1{fill:gray;}.cls-2{fill:#283941;}.cls-3{fill:#c9ac68;}</style></defs><g id="Layer_2" data-name="Layer 2"><g id="Layer_2-2" data-name="Layer 2"><path class="cls-1" d="M26.17,16.33A10,10,0,0,1,18.43,0,10,10,0,1,0,29.74,15.67,10.06,10.06,0,0,1,26.17,16.33Z"/><path class="cls-2" d="M9,4.57c-6.6,0-6.86,6.33-7,7a5.11,5.11,0,0,0-2,4.26,4.39,4.39,0,0,0,4.15,4.73H19.26A4.87,4.87,0,0,0,24,15.5a5,5,0,0,0-3.5-4.58A5.24,5.24,0,0,0,15.57,8l-.63,0A6.59,6.59,0,0,0,9,4.57Z"/><polygon class="cls-3" points="15.31 16.37 9.96 16.37 7.92 22.76 10.21 22.74 8.81 29.33 16.08 18.92 14.31 18.9 15.31 16.37 15.31 16.37"/></g></g></svg>