<svg xmlns="http://www.w3.org/2000/svg" viewBox="0 0 24 21.63"><defs><style>.cls-1{fill:#283941;}.cls-2{fill:gray;}</style></defs><g id="Layer_2" data-name="Layer 2"><g id="Layer_1-2" data-name="Layer 1"><path class="cls-1" d="M9,0C2.4,0,2.14,6.34,2,7a5.13,5.13,0,0,0-2,4.27A4.38,4.38,0,0,0,4.15,16H19.26A4.87,4.87,0,0,0,24,10.93a5.06,5.06,0,0,0-3.5-4.58,5.26,5.26,0,0,0-4.93-2.88c-.22,0-.42,0-.63,0A6.6,6.6,0,0,0,9,0Z"/><circle class="cls-2" cx="4.24" cy="19.93" r="1.7"/><circle class="cls-2" cx="9.41" cy="19.93" r="1.7"/><circle class="cls-2" cx="14.48" cy="19.93" r="1.7"/><circle class="cls-2" cx="19.54" cy="19.93" r="1.7"/></g></g></svg>