<svg xmlns="http://www.w3.org/2000/svg" viewBox="0 0 24 22"><defs><style>.cls-1{fill:#283941;}</style></defs><g id="Layer_2" data-name="Layer 2"><g id="Layer_1-2" data-name="Layer 1"><path class="cls-1" d="M9,0C2.4,0,2.14,6.34,2,7a5.13,5.13,0,0,0-2,4.27A4.38,4.38,0,0,0,4.15,16H19.26A4.87,4.87,0,0,0,24,10.93a5.06,5.06,0,0,0-3.5-4.58,5.26,5.26,0,0,0-4.93-2.88c-.22,0-.42,0-.63,0A6.6,6.6,0,0,0,9,0Z"/><rect class="cls-1" x="13.18" y="17.5" width="8.82" height="1.5" rx="0.75"/><rect class="cls-1" x="12" y="20.5" width="10" height="1.5" rx="0.75"/><path class="cls-1" d="M5.42,17.59a1,1,0,0,0-1.33.49l-1,2.13a1,1,0,0,0,1.82.85l1-2.14A1,1,0,0,0,5.42,17.59Z"/><path class="cls-1" d="M10.42,17.59a1,1,0,0,0-1.33.49l-1,2.13a1,1,0,0,0,.48,1.33,1,1,0,0,0,1.33-.48l1-2.14A1,1,0,0,0,10.42,17.59Z"/></g></g></svg>