<svg xmlns="http://www.w3.org/2000/svg" viewBox="0 0 24 22.15"><defs><style>.cls-1{fill:gray;}.cls-2{fill:#283941;}</style></defs><g id="Layer_2" data-name="Layer 2"><g id="Layer_1-2" data-name="Layer 1"><path class="cls-1" d="M5.87,20.37l-.75-.44.74-.42a.5.5,0,0,0-.5-.87l-.74.43v-.85a.5.5,0,0,0-.5-.5.5.5,0,0,0-.5.5v.85l-.75-.44a.51.51,0,0,0-.69.19.5.5,0,0,0,.19.68l.75.43-.74.43A.5.5,0,0,0,2.2,21a.51.51,0,0,0,.68.19l.74-.43v.85a.5.5,0,0,0,.5.5.5.5,0,0,0,.5-.5V20.8l.75.44a.52.52,0,0,0,.69-.19A.5.5,0,0,0,5.87,20.37Z"/><path class="cls-1" d="M16.23,20.37l-.75-.44.73-.42a.51.51,0,0,0,.19-.68.52.52,0,0,0-.69-.19l-.73.43v-.85a.5.5,0,0,0-.5-.5.5.5,0,0,0-.5.5v.85l-.76-.44a.5.5,0,0,0-.5.87l.76.43-.74.43a.49.49,0,0,0-.18.68.51.51,0,0,0,.68.19L14,20.8v.85a.5.5,0,0,0,.5.5.5.5,0,0,0,.5-.5V20.8l.75.44a.5.5,0,0,0,.68-.19A.49.49,0,0,0,16.23,20.37Z"/><path class="cls-2" d="M9,0C2.4,0,2.14,6.34,2,7a5.13,5.13,0,0,0-2,4.27A4.38,4.38,0,0,0,4.15,16H19.26A4.87,4.87,0,0,0,24,10.93a5.06,5.06,0,0,0-3.5-4.58,5.26,5.26,0,0,0-4.93-2.88c-.22,0-.42,0-.63,0A6.6,6.6,0,0,0,9,0Z"/><circle class="cls-1" cx="9.41" cy="19.93" r="1.7"/><circle class="cls-1" cx="19.54" cy="19.93" r="1.7"/></g></g></svg>