<svg xmlns="http://www.w3.org/2000/svg" viewBox="0 0 20 23.33"><defs><style>.cls-1{fill:#507282;}</style></defs><g id="Layer_2" data-name="Layer 2"><g id="Layer_1-2" data-name="Layer 1"><path class="cls-1" d="M15.17,12.94c0-.81-2.31-1.47-5.16-1.47s-5.16.66-5.16,1.47A2.75,2.75,0,0,0,6.4,15.6c1.84,1.17-1.57,1.25-1.57,3.68s7.61,2.21,7.76,4A3.26,3.26,0,0,0,11,19.57C8.68,18,14.8,18.47,15.17,12.94Z"/><path class="cls-1" d="M7.5,0C2,0,1.79,5.28,1.7,5.83A4.26,4.26,0,0,0,0,9.39a3.65,3.65,0,0,0,3.45,3.93h12.6A4,4,0,0,0,20,9.11,4.18,4.18,0,0,0,17.08,5.3,4.37,4.37,0,0,0,13,2.89l-.52,0A5.5,5.5,0,0,0,7.5,0Z"/></g></g></svg>