<svg xmlns="http://www.w3.org/2000/svg" viewBox="0 0 26.79 28.03"><defs><style>.cls-1{fill:#c9ac68;}.cls-2{fill:#507282;}.cls-3{fill:#8e9fa7;}</style></defs><g id="Layer_2" data-name="Layer 2"><g id="Layer_1-2" data-name="Layer 1"><path class="cls-1" d="M25.79,9h-2a1,1,0,0,0,0,2h2a1,1,0,0,0,0-2Z"/><path class="cls-1" d="M10.79,10a1,1,0,0,0-1-1h-2a1,1,0,1,0,0,2h2A1,1,0,0,0,10.79,10Z"/><path class="cls-1" d="M16.79,4a1,1,0,0,0,1-1V1a1,1,0,0,0-2,0V3A1,1,0,0,0,16.79,4Z"/><path class="cls-1" d="M16.79,16a1,1,0,0,0-1,1v2a1,1,0,0,0,2,0V17A1,1,0,0,0,16.79,16Z"/><path class="cls-1" d="M22.45,5.76l1.41-1.42a1,1,0,1,0-1.41-1.41L21,4.34a1,1,0,0,0,1.42,1.42Z"/><path class="cls-1" d="M11.13,14.24,9.72,15.66a1,1,0,1,0,1.41,1.41l1.42-1.41a1,1,0,0,0-1.42-1.42Z"/><path class="cls-1" d="M11.13,5.76a1,1,0,0,0,1.42-1.42L11.13,2.93A1,1,0,0,0,9.72,4.34Z"/><path class="cls-1" d="M22.45,14.24A1,1,0,0,0,21,15.66l1.42,1.41a1,1,0,1,0,1.41-1.41Z"/><circle class="cls-1" cx="16.79" cy="10" r="4"/><path class="cls-2" d="M9,6c-6.6,0-6.86,6.34-7,7A5.13,5.13,0,0,0,0,17.3,4.38,4.38,0,0,0,4.15,22H19.26A4.86,4.86,0,0,0,24,17a5,5,0,0,0-3.5-4.57A5.25,5.25,0,0,0,15.57,9.5c-.22,0-.42,0-.63,0A6.6,6.6,0,0,0,9,6Z"/><path class="cls-3" d="M4.92,24a1,1,0,0,0-1.33.49l-1,2.13a1,1,0,1,0,1.82.84l1-2.13A1,1,0,0,0,4.92,24Z"/><path class="cls-3" d="M14.92,24a1,1,0,0,0-1.33.49l-1,2.13a1,1,0,1,0,1.81.84l1-2.13A1,1,0,0,0,14.92,24Z"/><path class="cls-3" d="M9.92,24a1,1,0,0,0-1.33.49l-1,2.13a1,1,0,0,0,.48,1.33,1,1,0,0,0,1.33-.49l1-2.13A1,1,0,0,0,9.92,24Z"/><path class="cls-3" d="M19.92,24a1,1,0,0,0-1.33.49l-1,2.13a1,1,0,1,0,1.81.84l1-2.13A1,1,0,0,0,19.92,24Z"/></g></g></svg>