<svg xmlns="http://www.w3.org/2000/svg" viewBox="0 0 26 30.38"><defs><style>.cls-1{fill:#c9ac68;}.cls-2{fill:#507282;}</style></defs><g id="Layer_2" data-name="Layer 2"><g id="Layer_2-2" data-name="Layer 2"><path class="cls-1" d="M25,9H23a1,1,0,0,0,0,2h2a1,1,0,0,0,0-2Z"/><path class="cls-1" d="M10,10A1,1,0,0,0,9,9H7a1,1,0,0,0,0,2H9A1,1,0,0,0,10,10Z"/><path class="cls-1" d="M16,4a1,1,0,0,0,1-1V1a1,1,0,0,0-2,0V3A1,1,0,0,0,16,4Z"/><path class="cls-1" d="M16,16a1,1,0,0,0-1,1v2a1,1,0,0,0,2,0V17A1,1,0,0,0,16,16Z"/><path class="cls-1" d="M21.66,5.76l1.41-1.42a1,1,0,1,0-1.41-1.41L20.24,4.34a1,1,0,0,0,1.42,1.42Z"/><path class="cls-1" d="M10.34,14.24,8.93,15.66a1,1,0,1,0,1.41,1.41l1.42-1.41a1,1,0,1,0-1.42-1.42Z"/><path class="cls-1" d="M10.34,5.76a1,1,0,1,0,1.42-1.42L10.34,2.93A1,1,0,0,0,8.93,4.34Z"/><path class="cls-1" d="M21.66,14.24a1,1,0,1,0-1.42,1.42l1.42,1.41a1,1,0,1,0,1.41-1.41Z"/><circle class="cls-1" cx="16" cy="10" r="4"/><path class="cls-2" d="M9,5.62c-6.6,0-6.86,6.33-7,7a5.11,5.11,0,0,0-2,4.26,4.39,4.39,0,0,0,4.15,4.73H19.26A4.87,4.87,0,0,0,24,16.55,5,5,0,0,0,20.5,12a5.26,5.26,0,0,0-4.93-2.88l-.63,0A6.59,6.59,0,0,0,9,5.62Z"/><polygon class="cls-1" points="15.31 17.42 9.96 17.42 7.92 23.81 10.21 23.79 8.81 30.38 16.08 19.97 14.31 19.95 15.31 17.42 15.31 17.42"/></g></g></svg>