<svg xmlns="http://www.w3.org/2000/svg" viewBox="0 0 22.14 22.03"><defs><style>.cls-1{fill:#507282;}.cls-2{fill:#f11b00;}.cls-3{fill:#790d00;}</style></defs><g id="Layer_2" data-name="Layer 2"><g id="Layer_1-2" data-name="Layer 1"><path class="cls-1" d="M17.22,11c.43-1.32,1.93-7.33-4.75-11,0,0,1.24,4.21-1.22,4.87l0,0S4.13,2,0,9.56c0,0,4.24-1.28,4.88,1.23C4.63,11.46,2.4,18.07,9.55,22c0,0-1.27-4.32,1.32-4.89.05,0,7.16,2.82,11.27-4.72C22.14,12.42,17.71,13.76,17.22,11Z"/><polygon class="cls-2" points="11.2 6.85 6.8 15.18 15.34 15.18 11.2 6.85"/><path class="cls-3" d="M10.7,13.44a.37.37,0,0,1,.1-.27.41.41,0,0,1,.54,0,.37.37,0,0,1,.09.27.41.41,0,0,1-.09.28.39.39,0,0,1-.27.1.36.36,0,0,1-.27-.1A.41.41,0,0,1,10.7,13.44Zm.59-.78h-.43l-.13-2.5h.68Z"/></g></g></svg>